STARTFONT 2.1
COMMENT ======================================================================
COMMENT  This is the Goha WP font hacked for Linux consoles by Daniel Yacob for
COMMENT  Goha-12.psf.
COMMENT 
COMMENT  Yitna Firdiywek of GohaTibeb Associates has placed the Goha WP package
COMMENT  and these fonts into the publice domain under the GNU General Public
COMMENT  License vs 2.0 :-  ybf2u@virginia.edu
COMMENT 
COMMENT  Available at:  ftp://ftp.cs.indiana.edu/pub/fidel/fonts/linux/
COMMENT ======================================================================
FONT -Goha-ZemenFixed-Medium-R-Normal--12-150-100-100-M-120-Ethiopic-Unicode
SIZE 12 100 100
FONTBOUNDINGBOX 8 12 0 -2
STARTPROPERTIES 5
COPYRIGHT "GNU GPL 2.0"
DEFAULT_CHAR 318
FONT_ASCENT 6
FONT_DESCENT 2
_XMBDFED_INFO "Edited with xmbdfed 4.3."
ENDPROPERTIES
CHARS 384
STARTCHAR 0000
ENCODING 4608
SWIDTH 720 0
DWIDTH 12 0
BBX 7 11 0 -1
BITMAP
C6
C6
C6
C6
C6
C6
C6
CE
CC
FC
70
ENDCHAR
STARTCHAR 0001
ENCODING 4609
SWIDTH 720 0
DWIDTH 12 0
BBX 8 11 0 -1
BITMAP
CC
CC
CC
CC
CF
CF
CC
CC
D8
D8
70
ENDCHAR
STARTCHAR 0002
ENCODING 4610
SWIDTH 720 0
DWIDTH 12 0
BBX 8 12 0 -2
BITMAP
CC
CC
CC
CC
CC
7C
3C
0C
18
18
1F
1F
ENDCHAR
STARTCHAR 0003
ENCODING 4611
SWIDTH 720 0
DWIDTH 12 0
BBX 8 12 0 -2
BITMAP
C6
C6
C6
C6
CE
7E
3E
0C
0C
0C
0C
0C
ENDCHAR
STARTCHAR 0004
ENCODING 4612
SWIDTH 720 0
DWIDTH 12 0
BBX 8 12 0 -2
BITMAP
C6
C6
C6
C6
CE
7E
3E
0C
0C
1F
19
1F
ENDCHAR
STARTCHAR 0005
ENCODING 4613
SWIDTH 720 0
DWIDTH 12 0
BBX 7 11 0 -1
BITMAP
C6
C6
C6
C6
E6
66
66
66
66
7E
38
ENDCHAR
STARTCHAR 0006
ENCODING 4614
SWIDTH 720 0
DWIDTH 12 0
BBX 8 11 0 -1
BITMAP
CF
C9
CF
CC
CC
CC
CC
CC
CC
FC
78
ENDCHAR
STARTCHAR 013e
ENCODING 4615
SWIDTH 720 0
DWIDTH 12 0
BBX 0 0 0 0
BITMAP
ENDCHAR
STARTCHAR 0007
ENCODING 4616
SWIDTH 720 0
DWIDTH 12 0
BBX 7 11 0 -1
BITMAP
0C
18
30
78
CC
C6
C6
C6
C6
C6
C6
ENDCHAR
STARTCHAR 0008
ENCODING 4617
SWIDTH 720 0
DWIDTH 12 0
BBX 8 11 0 -1
BITMAP
0C
18
30
78
DC
CC
CF
CF
CC
CC
CC
ENDCHAR
STARTCHAR 0009
ENCODING 4618
SWIDTH 720 0
DWIDTH 12 0
BBX 8 11 0 -1
BITMAP
0C
18
30
78
DC
CC
CC
CC
CC
CC
CF
ENDCHAR
STARTCHAR 000a
ENCODING 4619
SWIDTH 720 0
DWIDTH 12 0
BBX 7 11 0 -1
BITMAP
0C
18
30
78
CC
C6
C6
C6
06
06
06
ENDCHAR
STARTCHAR 000b
ENCODING 4620
SWIDTH 720 0
DWIDTH 12 0
BBX 8 11 0 -1
BITMAP
0C
18
30
78
CC
CC
CC
CC
CF
CD
CF
ENDCHAR
STARTCHAR 000c
ENCODING 4621
SWIDTH 720 0
DWIDTH 12 0
BBX 7 11 0 -1
BITMAP
0C
18
30
78
CC
C6
C6
C6
F6
D6
F6
ENDCHAR
STARTCHAR 000d
ENCODING 4622
SWIDTH 720 0
DWIDTH 12 0
BBX 8 11 0 -1
BITMAP
0C
18
30
78
CF
CD
CF
CC
CC
CC
CC
ENDCHAR
STARTCHAR 000e
ENCODING 4623
SWIDTH 720 0
DWIDTH 12 0
BBX 8 11 0 -1
BITMAP
0C
18
30
78
CC
C6
C6
06
06
1F
11
ENDCHAR
STARTCHAR 000f
ENCODING 4624
SWIDTH 720 0
DWIDTH 12 0
BBX 7 11 0 -1
BITMAP
10
10
10
10
7C
D6
D6
D6
D6
D6
D6
ENDCHAR
STARTCHAR 0010
ENCODING 4625
SWIDTH 720 0
DWIDTH 12 0
BBX 7 11 0 -1
BITMAP
20
20
20
20
70
A8
AE
AE
A8
A8
A8
ENDCHAR
STARTCHAR 0011
ENCODING 4626
SWIDTH 720 0
DWIDTH 12 0
BBX 8 11 0 -1
BITMAP
10
10
10
10
7C
D6
D6
D6
D6
D4
D7
ENDCHAR
STARTCHAR 0012
ENCODING 4627
SWIDTH 720 0
DWIDTH 12 0
BBX 7 11 0 -1
BITMAP
10
10
10
10
7C
D6
D6
D6
06
06
06
ENDCHAR
STARTCHAR 0013
ENCODING 4628
SWIDTH 720 0
DWIDTH 12 0
BBX 8 11 0 -1
BITMAP
10
10
10
10
7C
D6
D6
D6
D7
D1
D7
ENDCHAR
STARTCHAR 0014
ENCODING 4629
SWIDTH 720 0
DWIDTH 12 0
BBX 7 11 0 -1
BITMAP
60
30
10
10
7C
D6
D6
D6
D6
D6
D6
ENDCHAR
STARTCHAR 0015
ENCODING 4630
SWIDTH 720 0
DWIDTH 12 0
BBX 7 11 0 -1
BITMAP
10
10
10
10
7C
D6
D6
D6
C0
C0
C0
ENDCHAR
STARTCHAR 0016
ENCODING 4631
SWIDTH 720 0
DWIDTH 12 0
BBX 8 11 0 -1
BITMAP
10
10
10
7C
D6
D6
D6
06
06
1F
11
ENDCHAR
STARTCHAR 0017
ENCODING 4632
SWIDTH 720 0
DWIDTH 12 0
BBX 7 8 0 0
BITMAP
7C
AA
AA
AA
AA
AA
AA
6C
ENDCHAR
STARTCHAR 0018
ENCODING 4633
SWIDTH 720 0
DWIDTH 12 0
BBX 8 8 0 0
BITMAP
7C
AA
AA
AB
AB
AA
AA
6C
ENDCHAR
STARTCHAR 0019
ENCODING 4634
SWIDTH 720 0
DWIDTH 12 0
BBX 8 12 0 -2
BITMAP
7C
AA
AA
AA
AA
6E
02
02
04
04
04
07
ENDCHAR
STARTCHAR 001a
ENCODING 4635
SWIDTH 720 0
DWIDTH 12 0
BBX 7 11 0 -1
BITMAP
7C
AA
AA
AA
AA
6E
02
02
02
02
02
ENDCHAR
STARTCHAR 001b
ENCODING 4636
SWIDTH 720 0
DWIDTH 12 0
BBX 8 11 0 -1
BITMAP
7C
AA
AA
AA
AA
6E
02
04
0F
09
0F
ENDCHAR
STARTCHAR 001c
ENCODING 4637
SWIDTH 720 0
DWIDTH 12 0
BBX 7 11 0 -1
BITMAP
7C
AA
AA
AA
AA
6C
20
60
C0
80
80
ENDCHAR
STARTCHAR 001d
ENCODING 4638
SWIDTH 720 0
DWIDTH 12 0
BBX 7 11 0 -1
BITMAP
7C
AA
AA
AA
AA
6C
20
20
20
20
20
ENDCHAR
STARTCHAR 001e
ENCODING 4639
SWIDTH 720 0
DWIDTH 12 0
BBX 8 11 0 -1
BITMAP
7E
A5
A5
A5
43
02
04
04
04
1F
11
ENDCHAR
STARTCHAR 001f
ENCODING 4640
SWIDTH 720 0
DWIDTH 12 0
BBX 7 9 0 0
BITMAP
D6
D6
D6
D6
D6
D6
DC
D0
70
ENDCHAR
STARTCHAR 0020
ENCODING 4641
SWIDTH 720 0
DWIDTH 12 0
BBX 8 9 0 0
BITMAP
D4
D4
D4
D7
D7
D4
DC
D0
70
ENDCHAR
STARTCHAR 0021
ENCODING 4642
SWIDTH 720 0
DWIDTH 12 0
BBX 8 12 0 -2
BITMAP
D6
D6
D6
D6
D6
7E
06
06
0C
18
18
1E
ENDCHAR
STARTCHAR 0022
ENCODING 4643
SWIDTH 720 0
DWIDTH 12 0
BBX 7 11 0 -1
BITMAP
D6
D6
D6
D6
D6
7E
06
06
06
06
06
ENDCHAR
STARTCHAR 0023
ENCODING 4644
SWIDTH 720 0
DWIDTH 12 0
BBX 8 12 0 -2
BITMAP
D6
D6
D6
D6
D6
7E
06
0C
18
1E
12
1E
ENDCHAR
STARTCHAR 0024
ENCODING 4645
SWIDTH 720 0
DWIDTH 12 0
BBX 7 11 0 -1
BITMAP
6A
6A
6A
6A
6A
7C
E0
C0
C0
C0
C0
ENDCHAR
STARTCHAR 0025
ENCODING 4646
SWIDTH 720 0
DWIDTH 12 0
BBX 7 11 0 -1
BITMAP
D6
D6
D6
D6
7C
30
30
30
60
60
60
ENDCHAR
STARTCHAR 0026
ENCODING 4647
SWIDTH 720 0
DWIDTH 12 0
BBX 8 12 0 -2
BITMAP
D6
D6
D6
D6
D6
7E
06
06
06
06
1F
11
ENDCHAR
STARTCHAR 0027
ENCODING 4648
SWIDTH 720 0
DWIDTH 12 0
BBX 7 11 0 -1
BITMAP
30
30
30
30
30
30
60
C0
C0
FE
7E
ENDCHAR
STARTCHAR 0028
ENCODING 4649
SWIDTH 720 0
DWIDTH 12 0
BBX 7 11 0 -1
BITMAP
30
30
30
30
60
C0
C0
7E
18
18
18
ENDCHAR
STARTCHAR 0029
ENCODING 4650
SWIDTH 720 0
DWIDTH 12 0
BBX 7 11 0 -1
BITMAP
30
30
30
30
60
60
C0
CC
C6
C6
7C
ENDCHAR
STARTCHAR 002a
ENCODING 4651
SWIDTH 720 0
DWIDTH 12 0
BBX 7 11 0 -1
BITMAP
30
30
30
30
30
30
60
C0
CE
CE
78
ENDCHAR
STARTCHAR 002b
ENCODING 4652
SWIDTH 720 0
DWIDTH 12 0
BBX 7 11 0 -1
BITMAP
30
30
30
30
30
30
60
C0
DE
F2
7E
ENDCHAR
STARTCHAR 002c
ENCODING 4653
SWIDTH 720 0
DWIDTH 12 0
BBX 7 11 0 -1
BITMAP
7C
FC
C0
C0
C0
C0
C0
C0
C0
FE
7E
ENDCHAR
STARTCHAR 002d
ENCODING 4654
SWIDTH 720 0
DWIDTH 12 0
BBX 7 11 0 -1
BITMAP
7E
F2
DE
C0
C0
C0
C0
C0
C0
FE
7E
ENDCHAR
STARTCHAR 002e
ENCODING 4655
SWIDTH 720 0
DWIDTH 12 0
BBX 7 11 0 -1
BITMAP
84
FC
30
30
30
30
60
C0
CE
CE
78
ENDCHAR
STARTCHAR 002f
ENCODING 4656
SWIDTH 720 0
DWIDTH 12 0
BBX 6 11 0 -1
BITMAP
30
30
30
78
CC
CC
CC
CC
CC
CC
CC
ENDCHAR
STARTCHAR 0030
ENCODING 4657
SWIDTH 720 0
DWIDTH 12 0
BBX 8 11 0 -1
BITMAP
30
30
30
78
CC
CC
CF
CF
CC
CC
CC
ENDCHAR
STARTCHAR 0031
ENCODING 4658
SWIDTH 720 0
DWIDTH 12 0
BBX 8 11 0 -1
BITMAP
30
30
30
78
CC
CC
CC
CC
CC
CF
CF
ENDCHAR
STARTCHAR 0032
ENCODING 4659
SWIDTH 720 0
DWIDTH 12 0
BBX 6 11 0 -1
BITMAP
30
30
30
78
CC
CC
CC
CC
0C
0C
0C
ENDCHAR
STARTCHAR 0033
ENCODING 4660
SWIDTH 720 0
DWIDTH 12 0
BBX 8 11 0 -1
BITMAP
30
30
30
78
CC
CC
CC
CC
CF
C9
CF
ENDCHAR
STARTCHAR 0034
ENCODING 4661
SWIDTH 720 0
DWIDTH 12 0
BBX 6 11 0 -1
BITMAP
40
60
30
78
CC
CC
CC
CC
CC
CC
CC
ENDCHAR
STARTCHAR 0035
ENCODING 4662
SWIDTH 720 0
DWIDTH 12 0
BBX 6 11 0 -1
BITMAP
30
30
30
78
CC
CC
CC
CC
C0
C0
C0
ENDCHAR
STARTCHAR 0036
ENCODING 4663
SWIDTH 720 0
DWIDTH 12 0
BBX 7 11 0 -1
BITMAP
30
30
78
CC
CC
CC
CC
0C
0C
3E
22
ENDCHAR
STARTCHAR 0037
ENCODING 4664
SWIDTH 720 0
DWIDTH 12 0
BBX 6 11 0 -1
BITMAP
FC
30
30
78
CC
CC
CC
CC
CC
CC
CC
ENDCHAR
STARTCHAR 0038
ENCODING 4665
SWIDTH 720 0
DWIDTH 12 0
BBX 8 11 0 -1
BITMAP
FC
30
30
78
CC
CC
CF
CF
CC
CC
CC
ENDCHAR
STARTCHAR 0039
ENCODING 4666
SWIDTH 720 0
DWIDTH 12 0
BBX 8 11 0 -1
BITMAP
FC
30
30
78
CC
CC
CC
CC
CC
CF
CF
ENDCHAR
STARTCHAR 003a
ENCODING 4667
SWIDTH 720 0
DWIDTH 12 0
BBX 6 11 0 -1
BITMAP
FC
30
30
78
CC
CC
CC
CC
0C
0C
0C
ENDCHAR
STARTCHAR 003b
ENCODING 4668
SWIDTH 720 0
DWIDTH 12 0
BBX 8 11 0 -1
BITMAP
FC
30
30
78
CC
CC
CC
CC
CF
C9
CF
ENDCHAR
STARTCHAR 003c
ENCODING 4669
SWIDTH 720 0
DWIDTH 12 0
BBX 7 11 0 -1
BITMAP
FC
30
10
18
3C
66
66
66
66
66
66
ENDCHAR
STARTCHAR 003d
ENCODING 4670
SWIDTH 720 0
DWIDTH 12 0
BBX 6 11 0 -1
BITMAP
FC
30
30
78
CC
CC
CC
CC
C0
C0
C0
ENDCHAR
STARTCHAR 003e
ENCODING 4671
SWIDTH 720 0
DWIDTH 12 0
BBX 7 11 0 -1
BITMAP
FC
30
30
78
CC
CC
CC
CC
0C
3E
22
ENDCHAR
STARTCHAR 003f
ENCODING 4672
SWIDTH 720 0
DWIDTH 12 0
BBX 8 11 0 -1
BITMAP
18
18
18
7E
DB
DB
7E
18
18
18
18
ENDCHAR
STARTCHAR 0040
ENCODING 4673
SWIDTH 720 0
DWIDTH 12 0
BBX 8 11 0 -1
BITMAP
18
18
18
7E
DB
DB
7E
18
1E
18
18
ENDCHAR
STARTCHAR 0041
ENCODING 4674
SWIDTH 720 0
DWIDTH 12 0
BBX 8 11 0 -1
BITMAP
18
18
18
7E
DB
DB
7E
18
18
18
1E
ENDCHAR
STARTCHAR 0042
ENCODING 4675
SWIDTH 720 0
DWIDTH 12 0
BBX 8 11 0 -1
BITMAP
18
18
7E
DB
DB
7E
18
18
30
60
C0
ENDCHAR
STARTCHAR 0043
ENCODING 4676
SWIDTH 720 0
DWIDTH 12 0
BBX 8 11 0 -1
BITMAP
18
18
18
7E
DB
DB
7E
18
1E
12
1E
ENDCHAR
STARTCHAR 0044
ENCODING 4677
SWIDTH 720 0
DWIDTH 12 0
BBX 8 11 0 -1
BITMAP
60
60
38
18
7E
DB
DB
7E
18
18
18
ENDCHAR
STARTCHAR 0045
ENCODING 4678
SWIDTH 720 0
DWIDTH 12 0
BBX 8 11 0 -1
BITMAP
3C
24
3C
18
7E
DB
DB
7E
18
18
18
ENDCHAR
STARTCHAR 013e
ENCODING 4679
SWIDTH 720 0
DWIDTH 12 0
BBX 0 0 0 0
BITMAP
ENDCHAR
STARTCHAR 0046
ENCODING 4680
SWIDTH 720 0
DWIDTH 12 0
BBX 8 11 0 -1
BITMAP
18
18
18
7E
DB
DB
7E
1F
1D
1F
18
ENDCHAR
STARTCHAR 0160
ENCODING 4681
SWIDTH 720 0
DWIDTH 12 0
BBX 7 10 1 -1
BITMAP
7C
C6
C6
0C
18
30
30
00
30
30
ENDCHAR
STARTCHAR 0047
ENCODING 4682
SWIDTH 720 0
DWIDTH 12 0
BBX 8 11 0 -1
BITMAP
10
11
11
7D
D7
D7
7C
10
10
10
10
ENDCHAR
STARTCHAR 0048
ENCODING 4683
SWIDTH 720 0
DWIDTH 12 0
BBX 8 11 0 -1
BITMAP
18
18
7E
DB
DB
7E
18
18
18
7E
42
ENDCHAR
STARTCHAR 0049
ENCODING 4684
SWIDTH 720 0
DWIDTH 12 0
BBX 8 11 0 -1
BITMAP
18
18
18
7E
DB
DB
7E
18
1E
1A
7E
ENDCHAR
STARTCHAR 004a
ENCODING 4685
SWIDTH 720 0
DWIDTH 12 0
BBX 8 11 0 -1
BITMAP
10
10
10
7C
D7
D7
7D
11
11
10
10
ENDCHAR
STARTCHAR 013e
ENCODING 4686
SWIDTH 720 0
DWIDTH 12 0
BBX 0 0 0 0
BITMAP
ENDCHAR
STARTCHAR 013e
ENCODING 4687
SWIDTH 720 0
DWIDTH 12 0
BBX 0 0 0 0
BITMAP
ENDCHAR
STARTCHAR 004b
ENCODING 4688
SWIDTH 720 0
DWIDTH 12 0
BBX 8 11 0 -1
BITMAP
7E
18
18
7E
DB
DB
7E
18
18
18
18
ENDCHAR
STARTCHAR 004c
ENCODING 4689
SWIDTH 720 0
DWIDTH 12 0
BBX 8 11 0 -1
BITMAP
7E
18
18
7E
DB
DB
7E
18
1E
18
18
ENDCHAR
STARTCHAR 004d
ENCODING 4690
SWIDTH 720 0
DWIDTH 12 0
BBX 8 11 0 -1
BITMAP
7E
18
18
7E
DB
DB
7E
18
18
18
1E
ENDCHAR
STARTCHAR 004e
ENCODING 4691
SWIDTH 720 0
DWIDTH 12 0
BBX 8 11 0 -1
BITMAP
7E
18
18
7E
DB
DB
7E
18
18
30
60
ENDCHAR
STARTCHAR 004f
ENCODING 4692
SWIDTH 720 0
DWIDTH 12 0
BBX 8 11 0 -1
BITMAP
7E
18
18
7E
DB
DB
7E
18
1E
12
1E
ENDCHAR
STARTCHAR 0050
ENCODING 4693
SWIDTH 720 0
DWIDTH 12 0
BBX 8 11 0 -1
BITMAP
FC
30
18
18
7E
DB
DB
7E
18
18
18
ENDCHAR
STARTCHAR 0051
ENCODING 4694
SWIDTH 720 0
DWIDTH 12 0
BBX 8 11 0 -1
BITMAP
FF
24
3C
18
7E
DB
DB
7E
18
18
18
ENDCHAR
STARTCHAR 013e
ENCODING 4695
SWIDTH 720 0
DWIDTH 12 0
BBX 0 0 0 0
BITMAP
ENDCHAR
STARTCHAR 0052
ENCODING 4696
SWIDTH 720 0
DWIDTH 12 0
BBX 8 11 0 -1
BITMAP
7E
18
18
7E
DB
DB
7E
1F
1D
1F
18
ENDCHAR
STARTCHAR 0160
ENCODING 4697
SWIDTH 720 0
DWIDTH 12 0
BBX 7 10 1 -1
BITMAP
7C
C6
C6
0C
18
30
30
00
30
30
ENDCHAR
STARTCHAR 0053
ENCODING 4698
SWIDTH 720 0
DWIDTH 12 0
BBX 8 11 0 -1
BITMAP
7E
19
19
7F
DB
DB
7E
18
18
18
18
ENDCHAR
STARTCHAR 0054
ENCODING 4699
SWIDTH 720 0
DWIDTH 12 0
BBX 8 11 0 -1
BITMAP
7E
18
7E
DB
DB
7E
18
18
18
7E
42
ENDCHAR
STARTCHAR 0055
ENCODING 4700
SWIDTH 720 0
DWIDTH 12 0
BBX 8 11 0 -1
BITMAP
7E
18
18
7E
DB
DB
7E
18
1E
1A
7E
ENDCHAR
STARTCHAR 0056
ENCODING 4701
SWIDTH 720 0
DWIDTH 12 0
BBX 8 11 0 -1
BITMAP
7E
18
18
7E
DB
DB
7F
19
19
18
18
ENDCHAR
STARTCHAR 013e
ENCODING 4702
SWIDTH 720 0
DWIDTH 12 0
BBX 0 0 0 0
BITMAP
ENDCHAR
STARTCHAR 013e
ENCODING 4703
SWIDTH 720 0
DWIDTH 12 0
BBX 0 0 0 0
BITMAP
ENDCHAR
STARTCHAR 0057
ENCODING 4704
SWIDTH 720 0
DWIDTH 12 0
BBX 7 10 0 -1
BITMAP
3C
46
C6
C6
C6
C6
C6
C6
C6
C6
ENDCHAR
STARTCHAR 0058
ENCODING 4705
SWIDTH 720 0
DWIDTH 12 0
BBX 8 10 0 -1
BITMAP
38
4C
CC
CC
CC
CF
CF
CC
CC
CC
ENDCHAR
STARTCHAR 0059
ENCODING 4706
SWIDTH 720 0
DWIDTH 12 0
BBX 8 10 0 -1
BITMAP
38
4C
CC
CC
CC
CC
CC
CC
CF
CF
ENDCHAR
STARTCHAR 005a
ENCODING 4707
SWIDTH 720 0
DWIDTH 12 0
BBX 7 10 0 -1
BITMAP
3C
46
C6
C6
C6
C6
06
06
06
06
ENDCHAR
STARTCHAR 005b
ENCODING 4708
SWIDTH 720 0
DWIDTH 12 0
BBX 8 10 0 -1
BITMAP
38
4C
CC
CC
CC
CC
CC
CF
C9
CF
ENDCHAR
STARTCHAR 005c
ENCODING 4709
SWIDTH 720 0
DWIDTH 12 0
BBX 7 10 0 -1
BITMAP
1C
26
66
66
E6
E6
66
66
66
66
ENDCHAR
STARTCHAR 005d
ENCODING 4710
SWIDTH 720 0
DWIDTH 12 0
BBX 7 10 0 -1
BITMAP
3C
46
C6
C6
C6
C6
C0
C0
C0
C0
ENDCHAR
STARTCHAR 005e
ENCODING 4711
SWIDTH 720 0
DWIDTH 12 0
BBX 8 10 0 -1
BITMAP
3C
46
C6
C6
C6
C6
06
06
1F
11
ENDCHAR
STARTCHAR 005f
ENCODING 4712
SWIDTH 720 0
DWIDTH 12 0
BBX 7 11 0 -1
BITMAP
FE
00
3C
46
C6
C6
C6
C6
C6
C6
C6
ENDCHAR
STARTCHAR 0060
ENCODING 4713
SWIDTH 720 0
DWIDTH 12 0
BBX 8 11 0 -1
BITMAP
FC
00
38
4C
CC
CC
CF
CF
CC
CC
CC
ENDCHAR
STARTCHAR 0061
ENCODING 4714
SWIDTH 720 0
DWIDTH 12 0
BBX 8 11 0 -1
BITMAP
FC
00
38
4C
CC
CC
CC
CC
CC
CF
CF
ENDCHAR
STARTCHAR 0062
ENCODING 4715
SWIDTH 720 0
DWIDTH 12 0
BBX 7 11 0 -1
BITMAP
FE
00
3C
46
C6
C6
C6
C6
06
06
06
ENDCHAR
STARTCHAR 0063
ENCODING 4716
SWIDTH 720 0
DWIDTH 12 0
BBX 8 11 0 -1
BITMAP
FC
00
38
4C
CC
CC
CC
CC
CF
C9
CF
ENDCHAR
STARTCHAR 0064
ENCODING 4717
SWIDTH 720 0
DWIDTH 12 0
BBX 8 11 0 -1
BITMAP
7F
00
1E
23
63
63
E3
E3
63
63
63
ENDCHAR
STARTCHAR 0065
ENCODING 4718
SWIDTH 720 0
DWIDTH 12 0
BBX 7 11 0 -1
BITMAP
FE
00
3C
46
C6
C6
C6
C6
C0
C0
C0
ENDCHAR
STARTCHAR 0066
ENCODING 4719
SWIDTH 720 0
DWIDTH 12 0
BBX 8 12 0 -2
BITMAP
FE
00
3C
46
C6
C6
C6
06
06
06
1F
11
ENDCHAR
STARTCHAR 0067
ENCODING 4720
SWIDTH 720 0
DWIDTH 12 0
BBX 8 11 0 -1
BITMAP
18
18
18
18
FF
99
18
18
18
18
18
ENDCHAR
STARTCHAR 0068
ENCODING 4721
SWIDTH 720 0
DWIDTH 12 0
BBX 8 11 0 -1
BITMAP
18
18
18
FF
99
18
18
1E
1E
18
18
ENDCHAR
STARTCHAR 0069
ENCODING 4722
SWIDTH 720 0
DWIDTH 12 0
BBX 8 11 0 -1
BITMAP
18
18
18
FF
99
18
18
18
18
1F
1F
ENDCHAR
STARTCHAR 006a
ENCODING 4723
SWIDTH 720 0
DWIDTH 12 0
BBX 8 11 0 -1
BITMAP
18
18
18
FF
99
18
18
18
30
60
C0
ENDCHAR
STARTCHAR 006b
ENCODING 4724
SWIDTH 720 0
DWIDTH 12 0
BBX 8 11 0 -1
BITMAP
18
18
18
FF
99
18
18
18
1E
12
1E
ENDCHAR
STARTCHAR 006c
ENCODING 4725
SWIDTH 720 0
DWIDTH 12 0
BBX 8 11 0 -1
BITMAP
60
60
38
18
18
FF
99
18
18
18
18
ENDCHAR
STARTCHAR 006d
ENCODING 4726
SWIDTH 720 0
DWIDTH 12 0
BBX 8 11 0 -1
BITMAP
3C
24
3C
18
18
FF
99
18
18
18
18
ENDCHAR
STARTCHAR 006e
ENCODING 4727
SWIDTH 720 0
DWIDTH 12 0
BBX 8 11 0 -1
BITMAP
18
18
18
FF
99
18
18
18
18
7E
42
ENDCHAR
STARTCHAR 006f
ENCODING 4728
SWIDTH 720 0
DWIDTH 12 0
BBX 8 11 0 -1
BITMAP
FF
99
18
18
FF
99
18
18
18
18
18
ENDCHAR
STARTCHAR 0070
ENCODING 4729
SWIDTH 720 0
DWIDTH 12 0
BBX 8 11 0 -1
BITMAP
FF
99
18
18
FF
99
18
1E
1E
18
18
ENDCHAR
STARTCHAR 0071
ENCODING 4730
SWIDTH 720 0
DWIDTH 12 0
BBX 8 11 0 -1
BITMAP
FF
99
18
18
FF
99
18
18
18
1F
1F
ENDCHAR
STARTCHAR 0072
ENCODING 4731
SWIDTH 720 0
DWIDTH 12 0
BBX 8 11 0 -1
BITMAP
FF
99
18
18
FF
99
18
18
30
60
C0
ENDCHAR
STARTCHAR 0073
ENCODING 4732
SWIDTH 720 0
DWIDTH 12 0
BBX 8 11 0 -1
BITMAP
FF
99
18
18
FF
99
18
18
1E
12
1E
ENDCHAR
STARTCHAR 0074
ENCODING 4733
SWIDTH 720 0
DWIDTH 12 0
BBX 8 11 0 -1
BITMAP
FE
B2
18
18
FF
99
18
18
18
18
18
ENDCHAR
STARTCHAR 0075
ENCODING 4734
SWIDTH 720 0
DWIDTH 12 0
BBX 8 11 0 -1
BITMAP
FF
A5
3C
18
FF
99
18
18
18
18
18
ENDCHAR
STARTCHAR 0076
ENCODING 4735
SWIDTH 720 0
DWIDTH 12 0
BBX 8 11 0 -1
BITMAP
FF
99
18
FF
99
18
18
18
18
7E
42
ENDCHAR
STARTCHAR 0077
ENCODING 4736
SWIDTH 720 0
DWIDTH 12 0
BBX 7 11 0 -1
BITMAP
18
F8
18
0E
06
06
06
06
06
06
06
ENDCHAR
STARTCHAR 0078
ENCODING 4737
SWIDTH 720 0
DWIDTH 12 0
BBX 8 11 0 -1
BITMAP
18
F8
18
0E
06
06
07
06
06
06
06
ENDCHAR
STARTCHAR 0079
ENCODING 4738
SWIDTH 720 0
DWIDTH 12 0
BBX 8 11 0 -1
BITMAP
18
F8
18
0E
06
06
06
06
06
06
07
ENDCHAR
STARTCHAR 007a
ENCODING 4739
SWIDTH 720 0
DWIDTH 12 0
BBX 7 11 0 -1
BITMAP
18
F8
18
0E
06
06
06
06
0C
18
30
ENDCHAR
STARTCHAR 007b
ENCODING 4740
SWIDTH 720 0
DWIDTH 12 0
BBX 8 11 0 -1
BITMAP
18
F8
18
0E
06
06
06
06
0F
09
0F
ENDCHAR
STARTCHAR 007c
ENCODING 4741
SWIDTH 720 0
DWIDTH 12 0
BBX 7 11 0 -1
BITMAP
18
78
D8
CE
06
06
06
06
06
06
06
ENDCHAR
STARTCHAR 007d
ENCODING 4742
SWIDTH 720 0
DWIDTH 12 0
BBX 8 10 0 -1
BITMAP
0F
1D
7B
D8
CE
06
06
06
06
06
ENDCHAR
STARTCHAR 0160
ENCODING 4743
SWIDTH 720 0
DWIDTH 12 0
BBX 7 10 1 -1
BITMAP
7C
C6
C6
0C
18
30
30
00
30
30
ENDCHAR
STARTCHAR 007e
ENCODING 4744
SWIDTH 720 0
DWIDTH 12 0
BBX 8 11 0 -1
BITMAP
30
F0
37
1D
0F
0C
0C
0C
0C
0C
0C
ENDCHAR
STARTCHAR 013e
ENCODING 4745
SWIDTH 720 0
DWIDTH 12 0
BBX 0 0 0 0
BITMAP
ENDCHAR
STARTCHAR 007f
ENCODING 4746
SWIDTH 720 0
DWIDTH 12 0
BBX 8 11 0 -1
BITMAP
30
F0
30
1C
0D
0D
0F
0D
0D
0C
0C
ENDCHAR
STARTCHAR 0080
ENCODING 4747
SWIDTH 720 0
DWIDTH 12 0
BBX 8 11 0 -1
BITMAP
30
F0
30
1C
0C
0C
0C
0C
0C
3F
21
ENDCHAR
STARTCHAR 0081
ENCODING 4748
SWIDTH 720 0
DWIDTH 12 0
BBX 8 11 0 -1
BITMAP
30
F0
30
1C
0C
0C
0C
0F
0D
3F
40
ENDCHAR
STARTCHAR 0082
ENCODING 4749
SWIDTH 720 0
DWIDTH 12 0
BBX 8 11 0 -1
BITMAP
30
F1
31
1F
0D
0D
0C
0C
0C
0C
0C
ENDCHAR
STARTCHAR 013e
ENCODING 4750
SWIDTH 720 0
DWIDTH 12 0
BBX 0 0 0 0
BITMAP
ENDCHAR
STARTCHAR 013e
ENCODING 4751
SWIDTH 720 0
DWIDTH 12 0
BBX 0 0 0 0
BITMAP
ENDCHAR
STARTCHAR 0083
ENCODING 4752
SWIDTH 720 0
DWIDTH 12 0
BBX 5 11 0 -1
BITMAP
C0
C0
C0
F8
18
18
18
18
18
18
18
ENDCHAR
STARTCHAR 0084
ENCODING 4753
SWIDTH 720 0
DWIDTH 12 0
BBX 7 11 0 -1
BITMAP
C0
C0
C0
F8
18
18
1E
1E
18
18
18
ENDCHAR
STARTCHAR 0085
ENCODING 4754
SWIDTH 720 0
DWIDTH 12 0
BBX 7 11 0 -1
BITMAP
C0
C0
C0
F8
18
18
18
18
18
1E
1E
ENDCHAR
STARTCHAR 0086
ENCODING 4755
SWIDTH 720 0
DWIDTH 12 0
BBX 7 11 0 -1
BITMAP
7C
C6
C6
C0
78
18
18
18
18
18
18
ENDCHAR
STARTCHAR 0087
ENCODING 4756
SWIDTH 720 0
DWIDTH 12 0
BBX 7 11 0 -1
BITMAP
C0
C0
C0
F8
18
18
18
18
1E
12
1E
ENDCHAR
STARTCHAR 0088
ENCODING 4757
SWIDTH 720 0
DWIDTH 12 0
BBX 7 11 0 -1
BITMAP
F8
98
18
1E
06
06
06
0C
18
18
18
ENDCHAR
STARTCHAR 0089
ENCODING 4758
SWIDTH 720 0
DWIDTH 12 0
BBX 7 11 0 -1
BITMAP
7E
D2
CE
C0
78
18
18
18
18
18
18
ENDCHAR
STARTCHAR 008a
ENCODING 4759
SWIDTH 720 0
DWIDTH 12 0
BBX 7 11 0 -1
BITMAP
7C
C6
C6
C0
78
18
18
18
18
7E
42
ENDCHAR
STARTCHAR 008b
ENCODING 4760
SWIDTH 720 0
DWIDTH 12 0
BBX 7 11 0 -1
BITMAP
84
FC
30
30
3E
06
06
06
06
06
06
ENDCHAR
STARTCHAR 008c
ENCODING 4761
SWIDTH 720 0
DWIDTH 12 0
BBX 8 11 0 -1
BITMAP
84
FC
30
30
3C
0C
0F
0F
0C
0C
0C
ENDCHAR
STARTCHAR 008d
ENCODING 4762
SWIDTH 720 0
DWIDTH 12 0
BBX 8 11 0 -1
BITMAP
84
FC
30
30
3C
0C
0C
0C
0C
0F
0F
ENDCHAR
STARTCHAR 008e
ENCODING 4763
SWIDTH 720 0
DWIDTH 12 0
BBX 7 11 0 -1
BITMAP
FE
10
7C
C6
C6
C0
78
18
18
18
18
ENDCHAR
STARTCHAR 008f
ENCODING 4764
SWIDTH 720 0
DWIDTH 12 0
BBX 8 11 0 -1
BITMAP
84
FC
30
30
3C
0C
0C
0C
0F
09
0F
ENDCHAR
STARTCHAR 0090
ENCODING 4765
SWIDTH 720 0
DWIDTH 12 0
BBX 8 11 0 -1
BITMAP
FE
10
7C
4C
0C
0F
03
03
06
06
06
ENDCHAR
STARTCHAR 0091
ENCODING 4766
SWIDTH 720 0
DWIDTH 12 0
BBX 7 11 0 -1
BITMAP
FE
10
7E
D2
CE
C0
78
18
18
18
18
ENDCHAR
STARTCHAR 0092
ENCODING 4767
SWIDTH 720 0
DWIDTH 12 0
BBX 8 12 0 -2
BITMAP
FE
10
7C
C6
C6
C0
78
18
18
18
7E
42
ENDCHAR
STARTCHAR 0093
ENCODING 4768
SWIDTH 720 0
DWIDTH 12 0
BBX 7 11 0 -1
BITMAP
C0
C0
70
30
78
CC
C6
C6
C6
C6
C6
ENDCHAR
STARTCHAR 0094
ENCODING 4769
SWIDTH 720 0
DWIDTH 12 0
BBX 8 11 0 -1
BITMAP
C0
C0
70
30
78
CC
C7
C7
C6
C6
C6
ENDCHAR
STARTCHAR 0095
ENCODING 4770
SWIDTH 720 0
DWIDTH 12 0
BBX 8 11 0 -1
BITMAP
C0
C0
70
30
78
CC
C6
C6
C6
C7
C7
ENDCHAR
STARTCHAR 0096
ENCODING 4771
SWIDTH 720 0
DWIDTH 12 0
BBX 7 11 0 -1
BITMAP
C0
C0
70
30
78
CC
C6
C6
06
06
06
ENDCHAR
STARTCHAR 0097
ENCODING 4772
SWIDTH 720 0
DWIDTH 12 0
BBX 8 11 0 -1
BITMAP
C0
C0
60
30
78
CC
C6
C6
CF
C9
CF
ENDCHAR
STARTCHAR 0098
ENCODING 4773
SWIDTH 720 0
DWIDTH 12 0
BBX 7 11 0 -1
BITMAP
E0
70
38
30
78
CC
C6
C6
C6
C6
C6
ENDCHAR
STARTCHAR 0099
ENCODING 4774
SWIDTH 720 0
DWIDTH 12 0
BBX 7 11 0 -1
BITMAP
C0
C0
70
30
78
CC
C6
C6
C0
C0
C0
ENDCHAR
STARTCHAR 009a
ENCODING 4775
SWIDTH 720 0
DWIDTH 12 0
BBX 8 11 0 -1
BITMAP
84
FC
30
38
18
3C
66
63
63
63
63
ENDCHAR
STARTCHAR 009b
ENCODING 4776
SWIDTH 720 0
DWIDTH 12 0
BBX 7 11 0 -1
BITMAP
80
80
BC
66
66
66
66
66
66
66
66
ENDCHAR
STARTCHAR 009c
ENCODING 4777
SWIDTH 720 0
DWIDTH 12 0
BBX 8 11 0 -1
BITMAP
80
80
BC
66
66
66
67
66
66
66
66
ENDCHAR
STARTCHAR 009d
ENCODING 4778
SWIDTH 720 0
DWIDTH 12 0
BBX 8 11 0 -1
BITMAP
80
80
BC
66
66
66
66
66
66
66
67
ENDCHAR
STARTCHAR 009e
ENCODING 4779
SWIDTH 720 0
DWIDTH 12 0
BBX 7 11 0 -1
BITMAP
80
80
BC
66
66
66
66
66
06
06
06
ENDCHAR
STARTCHAR 009f
ENCODING 4780
SWIDTH 720 0
DWIDTH 12 0
BBX 8 11 0 -1
BITMAP
80
80
BC
66
66
66
66
66
6F
69
6F
ENDCHAR
STARTCHAR 00a0
ENCODING 4781
SWIDTH 720 0
DWIDTH 12 0
BBX 7 11 0 -1
BITMAP
80
80
BC
66
66
66
76
36
36
36
36
ENDCHAR
STARTCHAR 00a1
ENCODING 4782
SWIDTH 720 0
DWIDTH 12 0
BBX 7 11 0 -1
BITMAP
80
80
BC
66
66
66
66
66
60
60
60
ENDCHAR
STARTCHAR 013e
ENCODING 4783
SWIDTH 720 0
DWIDTH 12 0
BBX 0 0 0 0
BITMAP
ENDCHAR
STARTCHAR 00a2
ENCODING 4784
SWIDTH 720 0
DWIDTH 12 0
BBX 8 11 0 -1
BITMAP
80
87
BD
67
66
66
66
66
66
66
66
ENDCHAR
STARTCHAR 013e
ENCODING 4785
SWIDTH 720 0
DWIDTH 12 0
BBX 0 0 0 0
BITMAP
ENDCHAR
STARTCHAR 00a3
ENCODING 4786
SWIDTH 720 0
DWIDTH 12 0
BBX 8 11 0 -1
BITMAP
80
80
B8
64
64
65
65
67
65
65
64
ENDCHAR
STARTCHAR 00a4
ENCODING 4787
SWIDTH 720 0
DWIDTH 12 0
BBX 8 11 0 -1
BITMAP
80
80
BC
66
66
66
66
06
06
1F
11
ENDCHAR
STARTCHAR 00a5
ENCODING 4788
SWIDTH 720 0
DWIDTH 12 0
BBX 8 11 0 -1
BITMAP
80
80
BC
66
66
66
06
07
05
07
1C
ENDCHAR
STARTCHAR 00a6
ENCODING 4789
SWIDTH 720 0
DWIDTH 12 0
BBX 8 11 0 -1
BITMAP
80
81
B9
67
65
65
64
64
64
64
64
ENDCHAR
STARTCHAR 013e
ENCODING 4790
SWIDTH 720 0
DWIDTH 12 0
BBX 0 0 0 0
BITMAP
ENDCHAR
STARTCHAR 013e
ENCODING 4791
SWIDTH 720 0
DWIDTH 12 0
BBX 0 0 0 0
BITMAP
ENDCHAR
STARTCHAR 00a7
ENCODING 4792
SWIDTH 720 0
DWIDTH 12 0
BBX 7 11 0 -1
BITMAP
30
E0
9C
66
66
66
66
66
66
66
66
ENDCHAR
STARTCHAR 00a8
ENCODING 4793
SWIDTH 720 0
DWIDTH 12 0
BBX 8 11 0 -1
BITMAP
30
E0
9C
66
66
66
67
67
66
66
66
ENDCHAR
STARTCHAR 00a9
ENCODING 4794
SWIDTH 720 0
DWIDTH 12 0
BBX 8 11 0 -1
BITMAP
30
E0
9C
66
66
66
66
66
66
66
67
ENDCHAR
STARTCHAR 00aa
ENCODING 4795
SWIDTH 720 0
DWIDTH 12 0
BBX 7 11 0 -1
BITMAP
30
E0
9C
66
66
66
66
06
06
06
06
ENDCHAR
STARTCHAR 00ab
ENCODING 4796
SWIDTH 720 0
DWIDTH 12 0
BBX 8 11 0 -1
BITMAP
30
E0
9C
66
66
66
66
66
67
65
67
ENDCHAR
STARTCHAR 00ac
ENCODING 4797
SWIDTH 720 0
DWIDTH 12 0
BBX 8 11 0 -1
BITMAP
30
E0
9E
33
33
33
1B
1B
1B
1B
1B
ENDCHAR
STARTCHAR 00ad
ENCODING 4798
SWIDTH 720 0
DWIDTH 12 0
BBX 7 11 0 -1
BITMAP
30
E0
9C
66
66
66
66
66
60
60
60
ENDCHAR
STARTCHAR 013e
ENCODING 4799
SWIDTH 720 0
DWIDTH 12 0
BBX 0 0 0 0
BITMAP
ENDCHAR
STARTCHAR 00ae
ENCODING 4800
SWIDTH 720 0
DWIDTH 12 0
BBX 8 11 0 -1
BITMAP
30
E0
9F
65
67
66
66
66
66
66
66
ENDCHAR
STARTCHAR 013e
ENCODING 4801
SWIDTH 720 0
DWIDTH 12 0
BBX 0 0 0 0
BITMAP
ENDCHAR
STARTCHAR 00af
ENCODING 4802
SWIDTH 720 0
DWIDTH 12 0
BBX 8 11 0 -1
BITMAP
30
E0
98
64
65
65
67
65
65
64
64
ENDCHAR
STARTCHAR 00b0
ENCODING 4803
SWIDTH 720 0
DWIDTH 12 0
BBX 8 11 0 -1
BITMAP
30
E0
9C
66
66
66
66
06
06
1F
11
ENDCHAR
STARTCHAR 00b1
ENCODING 4804
SWIDTH 720 0
DWIDTH 12 0
BBX 8 11 0 -1
BITMAP
30
E0
9C
7C
66
66
66
0F
09
3F
60
ENDCHAR
STARTCHAR 00b2
ENCODING 4805
SWIDTH 720 0
DWIDTH 12 0
BBX 8 11 0 -1
BITMAP
30
E2
9A
66
65
65
64
64
64
64
64
ENDCHAR
STARTCHAR 013e
ENCODING 4806
SWIDTH 720 0
DWIDTH 12 0
BBX 0 0 0 0
BITMAP
ENDCHAR
STARTCHAR 013e
ENCODING 4807
SWIDTH 720 0
DWIDTH 12 0
BBX 0 0 0 0
BITMAP
ENDCHAR
STARTCHAR 00b3
ENCODING 4808
SWIDTH 720 0
DWIDTH 12 0
BBX 7 8 0 0
BITMAP
7C
D6
D6
D6
D6
D6
D6
7C
ENDCHAR
STARTCHAR 00b4
ENCODING 4809
SWIDTH 720 0
DWIDTH 12 0
BBX 8 8 0 0
BITMAP
7C
D6
D6
D6
D6
D6
D7
7F
ENDCHAR
STARTCHAR 00b5
ENCODING 4810
SWIDTH 720 0
DWIDTH 12 0
BBX 8 11 0 -1
BITMAP
7E
DB
DB
DB
7E
18
18
18
18
1E
1E
ENDCHAR
STARTCHAR 00b6
ENCODING 4811
SWIDTH 720 0
DWIDTH 12 0
BBX 8 11 0 -1
BITMAP
7E
DB
DB
DB
7E
18
18
18
18
18
18
ENDCHAR
STARTCHAR 00b7
ENCODING 4812
SWIDTH 720 0
DWIDTH 12 0
BBX 8 11 0 -1
BITMAP
7E
DB
DB
DB
7E
18
18
18
1E
12
1E
ENDCHAR
STARTCHAR 00b8
ENCODING 4813
SWIDTH 720 0
DWIDTH 12 0
BBX 8 8 0 0
BITMAP
7C
D6
D6
D7
D7
D6
D6
7C
ENDCHAR
STARTCHAR 00b9
ENCODING 4814
SWIDTH 720 0
DWIDTH 12 0
BBX 8 11 0 -1
BITMAP
7E
DB
DB
DB
7E
18
30
60
C0
C0
C0
ENDCHAR
STARTCHAR 013e
ENCODING 4815
SWIDTH 720 0
DWIDTH 12 0
BBX 0 0 0 0
BITMAP
ENDCHAR
STARTCHAR 00ba
ENCODING 4816
SWIDTH 720 0
DWIDTH 12 0
BBX 6 11 0 -1
BITMAP
18
6C
CC
CC
CC
CC
CC
CC
CC
DC
60
ENDCHAR
STARTCHAR 00bb
ENCODING 4817
SWIDTH 720 0
DWIDTH 12 0
BBX 8 11 0 -1
BITMAP
18
7C
CC
CC
CC
CF
CC
CC
CC
FC
60
ENDCHAR
STARTCHAR 00bc
ENCODING 4818
SWIDTH 720 0
DWIDTH 12 0
BBX 8 11 0 -1
BITMAP
78
CC
CC
CC
CC
7E
06
06
0C
18
1F
ENDCHAR
STARTCHAR 00bd
ENCODING 4819
SWIDTH 720 0
DWIDTH 12 0
BBX 7 11 0 -1
BITMAP
78
CC
CC
CC
CC
7E
06
06
0C
18
18
ENDCHAR
STARTCHAR 00be
ENCODING 4820
SWIDTH 720 0
DWIDTH 12 0
BBX 8 11 0 -1
BITMAP
78
CC
CC
CC
CC
7E
06
0C
0F
09
0F
ENDCHAR
STARTCHAR 00bf
ENCODING 4821
SWIDTH 720 0
DWIDTH 12 0
BBX 6 11 0 -1
BITMAP
30
30
78
CC
CC
CC
CC
CC
CC
FC
60
ENDCHAR
STARTCHAR 00c0
ENCODING 4822
SWIDTH 720 0
DWIDTH 12 0
BBX 6 11 0 -1
BITMAP
78
CC
CC
CC
CC
78
60
C0
C0
C0
C0
ENDCHAR
STARTCHAR 013e
ENCODING 4823
SWIDTH 720 0
DWIDTH 12 0
BBX 0 0 0 0
BITMAP
ENDCHAR
STARTCHAR 00c1
ENCODING 4824
SWIDTH 720 0
DWIDTH 12 0
BBX 7 11 0 -1
BITMAP
C6
C6
C6
FE
C6
C6
C6
C6
C6
C6
C6
ENDCHAR
STARTCHAR 00c2
ENCODING 4825
SWIDTH 720 0
DWIDTH 12 0
BBX 8 11 0 -1
BITMAP
CC
CC
CC
FC
CC
CC
CF
CF
CC
CC
CC
ENDCHAR
STARTCHAR 00c3
ENCODING 4826
SWIDTH 720 0
DWIDTH 12 0
BBX 8 11 0 -1
BITMAP
CC
CC
CC
FC
CC
CC
CC
CC
CC
CF
CF
ENDCHAR
STARTCHAR 00c4
ENCODING 4827
SWIDTH 720 0
DWIDTH 12 0
BBX 7 11 0 -1
BITMAP
C6
C6
C6
FE
C6
C6
C6
06
06
06
06
ENDCHAR
STARTCHAR 00c5
ENCODING 4828
SWIDTH 720 0
DWIDTH 12 0
BBX 8 11 0 -1
BITMAP
CC
CC
CC
FC
CC
CC
CC
CC
CF
C9
CF
ENDCHAR
STARTCHAR 00c6
ENCODING 4829
SWIDTH 720 0
DWIDTH 12 0
BBX 8 11 0 -1
BITMAP
F3
F3
33
3F
33
33
33
33
33
33
33
ENDCHAR
STARTCHAR 00c7
ENCODING 4830
SWIDTH 720 0
DWIDTH 12 0
BBX 7 11 0 -1
BITMAP
C6
C6
C6
FE
C6
C6
C6
C0
C0
C0
C0
ENDCHAR
STARTCHAR 00c8
ENCODING 4831
SWIDTH 720 0
DWIDTH 12 0
BBX 8 11 0 -1
BITMAP
C6
C6
C6
FE
C6
C6
C6
06
06
1F
11
ENDCHAR
STARTCHAR 00c9
ENCODING 4832
SWIDTH 720 0
DWIDTH 12 0
BBX 8 11 0 -1
BITMAP
E7
66
66
7E
66
66
66
66
66
66
66
ENDCHAR
STARTCHAR 00ca
ENCODING 4833
SWIDTH 720 0
DWIDTH 12 0
BBX 8 11 0 -1
BITMAP
E7
66
66
7E
66
67
67
66
66
66
66
ENDCHAR
STARTCHAR 00cb
ENCODING 4834
SWIDTH 720 0
DWIDTH 12 0
BBX 8 11 0 -1
BITMAP
E7
66
66
7E
66
66
66
66
66
66
67
ENDCHAR
STARTCHAR 00cc
ENCODING 4835
SWIDTH 720 0
DWIDTH 12 0
BBX 8 11 0 -1
BITMAP
E7
66
66
7E
66
66
66
06
06
06
06
ENDCHAR
STARTCHAR 00cd
ENCODING 4836
SWIDTH 720 0
DWIDTH 12 0
BBX 8 11 0 -1
BITMAP
E7
66
66
7E
66
66
66
66
67
65
67
ENDCHAR
STARTCHAR 00ce
ENCODING 4837
SWIDTH 720 0
DWIDTH 12 0
BBX 8 11 0 -1
BITMAP
E0
47
E6
66
7E
66
66
66
66
66
66
ENDCHAR
STARTCHAR 00cf
ENCODING 4838
SWIDTH 720 0
DWIDTH 12 0
BBX 8 11 0 -1
BITMAP
E7
66
66
7E
66
66
66
60
60
60
60
ENDCHAR
STARTCHAR 00d0
ENCODING 4839
SWIDTH 720 0
DWIDTH 12 0
BBX 8 11 0 -1
BITMAP
E7
66
66
7E
66
66
66
06
06
1F
11
ENDCHAR
STARTCHAR 00d1
ENCODING 4840
SWIDTH 720 0
DWIDTH 12 0
BBX 7 11 0 -1
BITMAP
38
6C
C6
C6
66
3C
18
18
18
18
18
ENDCHAR
STARTCHAR 00d2
ENCODING 4841
SWIDTH 720 0
DWIDTH 12 0
BBX 8 11 0 -1
BITMAP
38
6C
C6
C6
66
3C
18
1F
1F
18
18
ENDCHAR
STARTCHAR 00d3
ENCODING 4842
SWIDTH 720 0
DWIDTH 12 0
BBX 8 11 0 -1
BITMAP
38
6C
C4
C4
6C
78
36
3E
33
33
30
ENDCHAR
STARTCHAR 00d4
ENCODING 4843
SWIDTH 720 0
DWIDTH 12 0
BBX 7 11 0 -1
BITMAP
38
6C
C6
C6
66
3C
18
0C
18
30
60
ENDCHAR
STARTCHAR 00d5
ENCODING 4844
SWIDTH 720 0
DWIDTH 12 0
BBX 8 11 0 -1
BITMAP
70
D8
8C
8C
D8
70
3F
39
37
30
30
ENDCHAR
STARTCHAR 00d6
ENCODING 4845
SWIDTH 720 0
DWIDTH 12 0
BBX 8 11 0 -1
BITMAP
38
6C
C6
C6
66
3C
1B
1B
7E
C0
C0
ENDCHAR
STARTCHAR 00d7
ENCODING 4846
SWIDTH 720 0
DWIDTH 12 0
BBX 8 11 0 -1
BITMAP
38
6C
C7
C7
64
3C
18
18
18
18
18
ENDCHAR
STARTCHAR 013e
ENCODING 4847
SWIDTH 720 0
DWIDTH 12 0
BBX 0 0 0 0
BITMAP
ENDCHAR
STARTCHAR 00d9
ENCODING 4848
SWIDTH 720 0
DWIDTH 12 0
BBX 6 11 0 -1
BITMAP
78
CC
CC
CC
F8
60
30
78
CC
CC
CC
ENDCHAR
STARTCHAR 00da
ENCODING 4849
SWIDTH 720 0
DWIDTH 12 0
BBX 8 11 0 -1
BITMAP
78
CC
CC
CC
F8
60
30
78
CF
CF
CC
ENDCHAR
STARTCHAR 00db
ENCODING 4850
SWIDTH 720 0
DWIDTH 12 0
BBX 8 11 0 -1
BITMAP
78
CC
CC
CC
F8
60
30
78
CC
CF
CF
ENDCHAR
STARTCHAR 00dc
ENCODING 4851
SWIDTH 720 0
DWIDTH 12 0
BBX 7 11 0 -1
BITMAP
78
CC
CC
CC
F8
60
30
7C
E6
06
06
ENDCHAR
STARTCHAR 00dd
ENCODING 4852
SWIDTH 720 0
DWIDTH 12 0
BBX 8 11 0 -1
BITMAP
78
CC
CC
CC
F8
60
30
7C
CF
C9
CF
ENDCHAR
STARTCHAR 00de
ENCODING 4853
SWIDTH 720 0
DWIDTH 12 0
BBX 8 11 0 -1
BITMAP
78
CC
CF
CC
F8
60
30
78
CC
CC
CC
ENDCHAR
STARTCHAR 00df
ENCODING 4854
SWIDTH 720 0
DWIDTH 12 0
BBX 7 11 0 -1
BITMAP
78
CC
CC
CC
F8
60
30
7E
C6
C0
C0
ENDCHAR
STARTCHAR 00e0
ENCODING 4855
SWIDTH 720 0
DWIDTH 12 0
BBX 8 11 0 -1
BITMAP
78
CC
CC
CC
F8
60
30
7C
C6
1F
11
ENDCHAR
STARTCHAR 00e1
ENCODING 4856
SWIDTH 720 0
DWIDTH 12 0
BBX 6 11 0 -1
BITMAP
78
CC
FC
CC
F8
60
30
78
CC
CC
CC
ENDCHAR
STARTCHAR 00e2
ENCODING 4857
SWIDTH 720 0
DWIDTH 12 0
BBX 8 11 0 -1
BITMAP
78
CC
FC
CC
F8
60
30
78
CF
CF
CC
ENDCHAR
STARTCHAR 00e3
ENCODING 4858
SWIDTH 720 0
DWIDTH 12 0
BBX 8 11 0 -1
BITMAP
78
CC
FC
CC
F8
60
30
7C
CC
CF
CF
ENDCHAR
STARTCHAR 00e4
ENCODING 4859
SWIDTH 720 0
DWIDTH 12 0
BBX 7 11 0 -1
BITMAP
78
CC
FC
CC
F8
60
30
7C
E6
06
06
ENDCHAR
STARTCHAR 00e5
ENCODING 4860
SWIDTH 720 0
DWIDTH 12 0
BBX 8 11 0 -1
BITMAP
78
CC
FC
CC
F8
60
30
7C
CF
C9
CF
ENDCHAR
STARTCHAR 00e6
ENCODING 4861
SWIDTH 720 0
DWIDTH 12 0
BBX 8 11 0 -1
BITMAP
78
CC
FF
CC
F8
60
30
78
CC
CC
CC
ENDCHAR
STARTCHAR 00e7
ENCODING 4862
SWIDTH 720 0
DWIDTH 12 0
BBX 7 11 0 -1
BITMAP
78
CC
FC
CC
F8
60
30
7E
C6
C0
C0
ENDCHAR
STARTCHAR 00e8
ENCODING 4863
SWIDTH 720 0
DWIDTH 12 0
BBX 8 11 0 -1
BITMAP
78
CC
FC
CC
F8
60
30
7C
C6
1F
11
ENDCHAR
STARTCHAR 00e9
ENCODING 4864
SWIDTH 720 0
DWIDTH 12 0
BBX 6 11 0 -1
BITMAP
FC
30
78
CC
CC
F8
60
30
78
CC
CC
ENDCHAR
STARTCHAR 00ea
ENCODING 4865
SWIDTH 720 0
DWIDTH 12 0
BBX 8 11 0 -1
BITMAP
FC
30
78
CC
CC
F8
60
30
7F
CF
CC
ENDCHAR
STARTCHAR 00eb
ENCODING 4866
SWIDTH 720 0
DWIDTH 12 0
BBX 8 11 0 -1
BITMAP
FC
30
78
CC
CC
F8
60
30
7C
CF
CF
ENDCHAR
STARTCHAR 00ec
ENCODING 4867
SWIDTH 720 0
DWIDTH 12 0
BBX 8 12 0 -2
BITMAP
FC
30
78
CC
CC
F8
60
30
7C
E6
06
06
ENDCHAR
STARTCHAR 00ed
ENCODING 4868
SWIDTH 720 0
DWIDTH 12 0
BBX 8 12 0 -2
BITMAP
FC
30
78
CC
CC
F8
60
30
7C
CF
C9
CF
ENDCHAR
STARTCHAR 00ee
ENCODING 4869
SWIDTH 720 0
DWIDTH 12 0
BBX 8 12 0 -2
BITMAP
FC
30
78
CF
CC
F8
60
30
78
CC
CC
CC
ENDCHAR
STARTCHAR 00ef
ENCODING 4870
SWIDTH 720 0
DWIDTH 12 0
BBX 8 12 0 -2
BITMAP
FC
30
78
CC
CC
F8
60
30
7E
C6
C0
C0
ENDCHAR
STARTCHAR 00f0
ENCODING 4871
SWIDTH 720 0
DWIDTH 12 0
BBX 8 12 0 -2
BITMAP
FC
30
78
CC
CC
F8
60
30
7C
C6
1F
11
ENDCHAR
STARTCHAR 00f1
ENCODING 4872
SWIDTH 720 0
DWIDTH 12 0
BBX 6 10 0 -1
BITMAP
F8
0C
0C
0C
0C
0C
0C
0C
0C
0C
ENDCHAR
STARTCHAR 00f2
ENCODING 4873
SWIDTH 720 0
DWIDTH 12 0
BBX 8 10 0 -1
BITMAP
F8
0C
0C
0C
0F
0C
0C
0C
0C
0C
ENDCHAR
STARTCHAR 00f3
ENCODING 4874
SWIDTH 720 0
DWIDTH 12 0
BBX 8 10 0 -1
BITMAP
F8
0C
0C
0C
0C
0C
0C
0C
0C
0F
ENDCHAR
STARTCHAR 00f4
ENCODING 4875
SWIDTH 720 0
DWIDTH 12 0
BBX 6 10 0 -1
BITMAP
F8
0C
0C
0C
0C
0C
18
30
60
C0
ENDCHAR
STARTCHAR 00f5
ENCODING 4876
SWIDTH 720 0
DWIDTH 12 0
BBX 8 10 0 -1
BITMAP
F8
0C
0C
0C
0C
0C
0C
0F
09
0F
ENDCHAR
STARTCHAR 00f6
ENCODING 4877
SWIDTH 720 0
DWIDTH 12 0
BBX 7 10 0 -1
BITMAP
FC
96
E6
06
06
06
06
06
06
06
ENDCHAR
STARTCHAR 00f7
ENCODING 4878
SWIDTH 720 0
DWIDTH 12 0
BBX 6 11 0 -1
BITMAP
30
30
F8
0C
0C
0C
0C
0C
0C
0C
0C
ENDCHAR
STARTCHAR 013e
ENCODING 4879
SWIDTH 720 0
DWIDTH 12 0
BBX 0 0 0 0
BITMAP
ENDCHAR
STARTCHAR 00f8
ENCODING 4880
SWIDTH 720 0
DWIDTH 12 0
BBX 8 10 0 -1
BITMAP
F0
18
18
1F
19
1F
18
18
18
18
ENDCHAR
STARTCHAR 013e
ENCODING 4881
SWIDTH 720 0
DWIDTH 12 0
BBX 0 0 0 0
BITMAP
ENDCHAR
STARTCHAR 00f9
ENCODING 4882
SWIDTH 720 0
DWIDTH 12 0
BBX 7 10 0 -1
BITMAP
F0
18
18
1A
1A
1E
1A
1A
18
18
ENDCHAR
STARTCHAR 00fa
ENCODING 4883
SWIDTH 720 0
DWIDTH 12 0
BBX 7 11 0 -1
BITMAP
F0
D8
18
7C
66
06
06
06
06
06
06
ENDCHAR
STARTCHAR 00fb
ENCODING 4884
SWIDTH 720 0
DWIDTH 12 0
BBX 7 11 0 -1
BITMAP
F0
18
18
18
1E
12
1E
30
60
C0
C0
ENDCHAR
STARTCHAR 00fc
ENCODING 4885
SWIDTH 720 0
DWIDTH 12 0
BBX 7 10 0 -1
BITMAP
F2
1A
1E
1A
1A
18
18
18
18
18
ENDCHAR
STARTCHAR 013e
ENCODING 4886
SWIDTH 720 0
DWIDTH 12 0
BBX 0 0 0 0
BITMAP
ENDCHAR
STARTCHAR 013e
ENCODING 4887
SWIDTH 720 0
DWIDTH 12 0
BBX 0 0 0 0
BITMAP
ENDCHAR
STARTCHAR 00fd
ENCODING 4888
SWIDTH 720 0
DWIDTH 12 0
BBX 6 11 0 -1
BITMAP
FC
00
F8
0C
0C
0C
0C
0C
0C
0C
0C
ENDCHAR
STARTCHAR 00fe
ENCODING 4889
SWIDTH 720 0
DWIDTH 12 0
BBX 8 11 0 -1
BITMAP
FC
00
F8
0C
0C
0F
0C
0C
0C
0C
0C
ENDCHAR
STARTCHAR 00ff
ENCODING 4890
SWIDTH 720 0
DWIDTH 12 0
BBX 8 11 0 -1
BITMAP
FC
00
F8
0C
0C
0C
0C
0C
0C
0C
0F
ENDCHAR
STARTCHAR 0100
ENCODING 4891
SWIDTH 720 0
DWIDTH 12 0
BBX 6 11 0 -1
BITMAP
FC
00
F8
0C
0C
0C
0C
18
30
60
C0
ENDCHAR
STARTCHAR 0101
ENCODING 4892
SWIDTH 720 0
DWIDTH 12 0
BBX 8 11 0 -1
BITMAP
FC
00
F8
0C
0C
0C
0C
0C
0F
09
0F
ENDCHAR
STARTCHAR 0102
ENCODING 4893
SWIDTH 720 0
DWIDTH 12 0
BBX 7 11 0 -1
BITMAP
FC
00
FC
96
E6
06
06
06
06
06
06
ENDCHAR
STARTCHAR 0103
ENCODING 4894
SWIDTH 720 0
DWIDTH 12 0
BBX 6 11 0 -1
BITMAP
FC
20
F8
0C
0C
0C
0C
0C
0C
0C
0C
ENDCHAR
STARTCHAR 013e
ENCODING 4895
SWIDTH 720 0
DWIDTH 12 0
BBX 0 0 0 0
BITMAP
ENDCHAR
STARTCHAR 0104
ENCODING 4896
SWIDTH 720 0
DWIDTH 12 0
BBX 7 11 0 -1
BITMAP
7C
92
92
92
92
92
92
92
92
92
92
ENDCHAR
STARTCHAR 0105
ENCODING 4897
SWIDTH 720 0
DWIDTH 12 0
BBX 8 11 0 -1
BITMAP
70
A8
A8
A8
A8
AF
A8
A8
A8
A8
A8
ENDCHAR
STARTCHAR 0106
ENCODING 4898
SWIDTH 720 0
DWIDTH 12 0
BBX 8 11 0 -1
BITMAP
70
A8
A8
A8
A8
A8
A8
A8
A8
A8
AF
ENDCHAR
STARTCHAR 0107
ENCODING 4899
SWIDTH 720 0
DWIDTH 12 0
BBX 7 11 0 -1
BITMAP
7C
92
92
92
92
92
02
02
02
02
02
ENDCHAR
STARTCHAR 0108
ENCODING 4900
SWIDTH 720 0
DWIDTH 12 0
BBX 8 11 0 -1
BITMAP
70
A8
A8
A8
A8
A8
A8
A8
AE
A9
AE
ENDCHAR
STARTCHAR 0109
ENCODING 4901
SWIDTH 720 0
DWIDTH 12 0
BBX 7 11 0 -1
BITMAP
7C
92
92
92
92
08
08
08
08
08
08
ENDCHAR
STARTCHAR 010a
ENCODING 4902
SWIDTH 720 0
DWIDTH 12 0
BBX 7 11 0 -1
BITMAP
7C
92
92
92
92
92
80
80
80
80
80
ENDCHAR
STARTCHAR 010b
ENCODING 4903
SWIDTH 720 0
DWIDTH 12 0
BBX 7 11 0 -1
BITMAP
70
A8
A8
A8
A8
A8
A8
08
08
3E
22
ENDCHAR
STARTCHAR 010c
ENCODING 4904
SWIDTH 720 0
DWIDTH 12 0
BBX 8 11 0 -1
BITMAP
7C
92
92
92
92
92
92
92
92
DB
DB
ENDCHAR
STARTCHAR 010d
ENCODING 4905
SWIDTH 720 0
DWIDTH 12 0
BBX 8 11 0 -1
BITMAP
7C
92
92
92
92
92
92
92
92
DB
DB
ENDCHAR
STARTCHAR 010e
ENCODING 4906
SWIDTH 720 0
DWIDTH 12 0
BBX 8 11 0 -1
BITMAP
7C
92
92
92
93
93
92
92
92
DA
DA
ENDCHAR
STARTCHAR 010f
ENCODING 4907
SWIDTH 720 0
DWIDTH 12 0
BBX 8 11 0 -1
BITMAP
7C
92
92
92
92
DA
DA
02
02
03
03
ENDCHAR
STARTCHAR 0110
ENCODING 4908
SWIDTH 720 0
DWIDTH 12 0
BBX 8 11 0 -1
BITMAP
7C
92
92
92
92
92
92
92
92
DD
DA
ENDCHAR
STARTCHAR 0111
ENCODING 4909
SWIDTH 720 0
DWIDTH 12 0
BBX 8 11 0 -1
BITMAP
7C
92
92
92
D3
D3
08
08
08
0C
0C
ENDCHAR
STARTCHAR 0112
ENCODING 4910
SWIDTH 720 0
DWIDTH 12 0
BBX 8 11 0 -1
BITMAP
7C
92
92
92
9B
9B
80
80
80
C0
C0
ENDCHAR
STARTCHAR 0113
ENCODING 4911
SWIDTH 720 0
DWIDTH 12 0
BBX 8 11 0 -1
BITMAP
7C
92
92
92
92
DA
DA
02
02
1F
11
ENDCHAR
STARTCHAR 0114
ENCODING 4912
SWIDTH 720 0
DWIDTH 12 0
BBX 8 12 0 -2
BITMAP
10
10
38
6C
44
44
6C
38
38
6C
C6
C6
ENDCHAR
STARTCHAR 0115
ENCODING 4913
SWIDTH 720 0
DWIDTH 12 0
BBX 8 12 0 -2
BITMAP
10
10
38
6C
44
44
6C
38
38
6F
C7
C6
ENDCHAR
STARTCHAR 0116
ENCODING 4914
SWIDTH 720 0
DWIDTH 12 0
BBX 8 12 0 -2
BITMAP
10
10
38
6C
44
44
6C
38
38
6C
C7
C7
ENDCHAR
STARTCHAR 0117
ENCODING 4915
SWIDTH 720 0
DWIDTH 12 0
BBX 8 12 0 -2
BITMAP
10
10
38
6C
44
44
6C
38
38
6C
06
06
ENDCHAR
STARTCHAR 0118
ENCODING 4916
SWIDTH 720 0
DWIDTH 12 0
BBX 8 12 0 -2
BITMAP
10
10
38
6C
44
44
6C
38
38
6F
C5
C7
ENDCHAR
STARTCHAR 0119
ENCODING 4917
SWIDTH 720 0
DWIDTH 12 0
BBX 8 12 0 -2
BITMAP
20
20
70
DF
88
88
D8
70
38
6C
C6
C6
ENDCHAR
STARTCHAR 011a
ENCODING 4918
SWIDTH 720 0
DWIDTH 12 0
BBX 8 12 0 -2
BITMAP
10
10
38
6C
44
44
6C
38
38
6C
C0
C0
ENDCHAR
STARTCHAR 011b
ENCODING 4919
SWIDTH 720 0
DWIDTH 12 0
BBX 8 12 0 -2
BITMAP
10
10
38
6C
44
6C
38
6C
66
06
1F
11
ENDCHAR
STARTCHAR 011c
ENCODING 4920
SWIDTH 720 0
DWIDTH 12 0
BBX 7 11 0 -1
BITMAP
38
6C
44
44
6C
38
38
6C
C6
C6
C6
ENDCHAR
STARTCHAR 011d
ENCODING 4921
SWIDTH 720 0
DWIDTH 12 0
BBX 8 11 0 -1
BITMAP
38
6C
44
44
6C
38
38
6C
C7
C7
C6
ENDCHAR
STARTCHAR 011e
ENCODING 4922
SWIDTH 720 0
DWIDTH 12 0
BBX 8 11 0 -1
BITMAP
38
6C
44
44
6C
38
38
6C
C6
C7
C7
ENDCHAR
STARTCHAR 011f
ENCODING 4923
SWIDTH 720 0
DWIDTH 12 0
BBX 7 11 0 -1
BITMAP
38
6C
44
44
6C
38
38
6C
C6
06
06
ENDCHAR
STARTCHAR 0120
ENCODING 4924
SWIDTH 720 0
DWIDTH 12 0
BBX 8 11 0 -1
BITMAP
38
6C
44
44
6C
38
38
6C
C7
C5
C7
ENDCHAR
STARTCHAR 0121
ENCODING 4925
SWIDTH 720 0
DWIDTH 12 0
BBX 8 11 0 -1
BITMAP
38
6C
47
47
6C
38
38
6C
C6
C6
C6
ENDCHAR
STARTCHAR 0122
ENCODING 4926
SWIDTH 720 0
DWIDTH 12 0
BBX 7 11 0 -1
BITMAP
38
6C
44
44
6C
38
38
6C
C6
C0
C0
ENDCHAR
STARTCHAR 0123
ENCODING 4927
SWIDTH 720 0
DWIDTH 12 0
BBX 8 11 0 -1
BITMAP
38
6C
44
44
6C
38
7C
C6
06
1F
11
ENDCHAR
STARTCHAR 0124
ENCODING 4928
SWIDTH 720 0
DWIDTH 12 0
BBX 6 11 0 -1
BITMAP
18
FC
CC
CC
FC
CC
CC
CC
CC
FC
60
ENDCHAR
STARTCHAR 0125
ENCODING 4929
SWIDTH 720 0
DWIDTH 12 0
BBX 8 11 0 -1
BITMAP
18
FC
CC
CC
FC
CC
CF
CF
CC
FC
60
ENDCHAR
STARTCHAR 0126
ENCODING 4930
SWIDTH 720 0
DWIDTH 12 0
BBX 8 11 0 -1
BITMAP
78
CC
CC
FC
CC
CC
7C
0C
0C
0C
0F
ENDCHAR
STARTCHAR 0127
ENCODING 4931
SWIDTH 720 0
DWIDTH 12 0
BBX 6 11 0 -1
BITMAP
78
CC
CC
FC
CC
CC
7C
0C
0C
0C
0C
ENDCHAR
STARTCHAR 0128
ENCODING 4932
SWIDTH 720 0
DWIDTH 12 0
BBX 8 11 0 -1
BITMAP
78
CC
CC
FC
CC
CC
7C
0C
0F
09
0F
ENDCHAR
STARTCHAR 0129
ENCODING 4933
SWIDTH 720 0
DWIDTH 12 0
BBX 6 11 0 -1
BITMAP
30
30
78
CC
CC
FC
CC
CC
CC
FC
60
ENDCHAR
STARTCHAR 012a
ENCODING 4934
SWIDTH 720 0
DWIDTH 12 0
BBX 6 11 0 -1
BITMAP
78
CC
FC
CC
CC
78
60
C0
C0
C0
C0
ENDCHAR
STARTCHAR 0160
ENCODING 4935
SWIDTH 720 0
DWIDTH 12 0
BBX 7 10 1 -1
BITMAP
7C
C6
C6
0C
18
30
30
00
30
30
ENDCHAR
STARTCHAR 012b
ENCODING 4936
SWIDTH 720 0
DWIDTH 12 0
BBX 8 11 0 -1
BITMAP
30
30
30
30
30
60
C0
F0
C8
CF
7F
ENDCHAR
STARTCHAR 012c
ENCODING 4937
SWIDTH 720 0
DWIDTH 12 0
BBX 8 12 0 -2
BITMAP
60
60
60
60
C0
F8
CC
CC
7F
0C
18
30
ENDCHAR
STARTCHAR 012d
ENCODING 4938
SWIDTH 720 0
DWIDTH 12 0
BBX 8 11 0 -1
BITMAP
30
30
30
30
60
60
C0
F2
C9
C9
7E
ENDCHAR
STARTCHAR 012e
ENCODING 4939
SWIDTH 720 0
DWIDTH 12 0
BBX 8 11 0 -1
BITMAP
60
60
60
60
C0
F0
CC
CC
7F
0C
0C
ENDCHAR
STARTCHAR 012f
ENCODING 4940
SWIDTH 720 0
DWIDTH 12 0
BBX 8 11 0 -1
BITMAP
60
60
60
40
C0
F0
C8
C8
7F
09
0F
ENDCHAR
STARTCHAR 0130
ENCODING 4941
SWIDTH 720 0
DWIDTH 12 0
BBX 8 11 0 -1
BITMAP
7C
FC
C0
C0
C0
F8
CC
CC
7F
0C
0C
ENDCHAR
STARTCHAR 0131
ENCODING 4942
SWIDTH 720 0
DWIDTH 12 0
BBX 8 11 0 -1
BITMAP
7E
F2
DE
C0
C0
F8
CC
CC
7F
0C
0C
ENDCHAR
STARTCHAR 0132
ENCODING 4943
SWIDTH 720 0
DWIDTH 12 0
BBX 8 11 0 -1
BITMAP
60
60
60
C0
F8
CC
CC
7F
0C
3F
21
ENDCHAR
STARTCHAR 0133
ENCODING 4944
SWIDTH 720 0
DWIDTH 12 0
BBX 7 11 0 -1
BITMAP
FE
92
10
10
10
10
10
10
10
10
10
ENDCHAR
STARTCHAR 0134
ENCODING 4945
SWIDTH 720 0
DWIDTH 12 0
BBX 7 11 0 -1
BITMAP
FE
92
10
10
10
10
1E
10
10
10
10
ENDCHAR
STARTCHAR 0135
ENCODING 4946
SWIDTH 720 0
DWIDTH 12 0
BBX 7 11 0 -1
BITMAP
FE
92
10
10
10
10
10
10
10
10
1E
ENDCHAR
STARTCHAR 0136
ENCODING 4947
SWIDTH 720 0
DWIDTH 12 0
BBX 7 11 0 -1
BITMAP
FE
92
10
10
10
10
10
10
10
10
E0
ENDCHAR
STARTCHAR 0137
ENCODING 4948
SWIDTH 720 0
DWIDTH 12 0
BBX 7 11 0 -1
BITMAP
FE
92
10
10
10
10
10
10
1C
12
1C
ENDCHAR
STARTCHAR 0138
ENCODING 4949
SWIDTH 720 0
DWIDTH 12 0
BBX 7 11 0 -1
BITMAP
FE
92
10
18
08
08
08
08
08
08
08
ENDCHAR
STARTCHAR 0139
ENCODING 4950
SWIDTH 720 0
DWIDTH 12 0
BBX 7 11 0 -1
BITMAP
FE
92
10
10
20
20
40
40
80
80
80
ENDCHAR
STARTCHAR 013a
ENCODING 4951
SWIDTH 720 0
DWIDTH 12 0
BBX 7 11 0 -1
BITMAP
FE
92
10
10
10
10
10
10
10
7C
44
ENDCHAR
STARTCHAR 013b
ENCODING 4952
SWIDTH 720 0
DWIDTH 12 0
BBX 8 12 0 -2
BITMAP
FE
10
7C
AA
AA
AA
AA
6E
02
02
02
02
ENDCHAR
STARTCHAR 013c
ENCODING 4953
SWIDTH 720 0
DWIDTH 12 0
BBX 7 11 0 -1
BITMAP
84
FC
30
30
30
60
C0
CC
C6
C6
7C
ENDCHAR
STARTCHAR 013d
ENCODING 4954
SWIDTH 720 0
DWIDTH 12 0
BBX 8 11 0 -1
BITMAP
84
FC
30
30
30
60
C0
F2
C9
C9
7E
ENDCHAR
STARTCHAR 013e
ENCODING 4960
SWIDTH 720 0
DWIDTH 12 0
BBX 0 0 0 0
BITMAP
ENDCHAR
STARTCHAR 013f
ENCODING 4961
SWIDTH 720 0
DWIDTH 12 0
BBX 2 5 3 1
BITMAP
C0
C0
00
C0
C0
ENDCHAR
STARTCHAR 0140
ENCODING 4962
SWIDTH 720 0
DWIDTH 12 0
BBX 5 5 1 1
BITMAP
D8
D8
00
D8
D8
ENDCHAR
STARTCHAR 0141
ENCODING 4963
SWIDTH 720 0
DWIDTH 12 0
BBX 6 8 1 1
BITMAP
0C
FC
C0
30
30
00
30
30
ENDCHAR
STARTCHAR 0142
ENCODING 4964
SWIDTH 720 0
DWIDTH 12 0
BBX 6 11 1 -2
BITMAP
0C
FC
C0
30
30
00
30
30
0C
FC
C0
ENDCHAR
STARTCHAR 0143
ENCODING 4965
SWIDTH 720 0
DWIDTH 12 0
BBX 6 7 1 1
BITMAP
30
30
0C
FC
C0
30
30
ENDCHAR
STARTCHAR 0144
ENCODING 4966
SWIDTH 720 0
DWIDTH 12 0
BBX 5 7 3 1
BITMAP
C0
C0
00
78
00
C0
C0
ENDCHAR
STARTCHAR 0145
ENCODING 4967
SWIDTH 720 0
DWIDTH 12 0
BBX 2 8 3 1
BITMAP
C0
C0
00
C0
C0
00
C0
C0
ENDCHAR
STARTCHAR 0146
ENCODING 4968
SWIDTH 720 0
DWIDTH 12 0
BBX 8 9 0 1
BITMAP
18
18
C3
DB
18
DB
C3
18
18
ENDCHAR
STARTCHAR 0147
ENCODING 4969
SWIDTH 720 0
DWIDTH 12 0
BBX 8 12 0 -2
BITMAP
FE
C6
30
30
70
E8
CC
CC
78
00
FE
C6
ENDCHAR
STARTCHAR 0148
ENCODING 4970
SWIDTH 720 0
DWIDTH 12 0
BBX 8 12 0 -2
BITMAP
FF
C3
3C
76
E6
FC
E0
7C
76
3C
FF
C3
ENDCHAR
STARTCHAR 0149
ENCODING 4971
SWIDTH 720 0
DWIDTH 12 0
BBX 8 12 0 -2
BITMAP
FE
C6
00
7C
6C
60
60
60
70
00
FE
C6
ENDCHAR
STARTCHAR 014a
ENCODING 4972
SWIDTH 720 0
DWIDTH 12 0
BBX 8 12 0 -2
BITMAP
FE
C6
38
6C
6C
6C
6C
6C
38
00
FE
C6
ENDCHAR
STARTCHAR 014b
ENCODING 4973
SWIDTH 720 0
DWIDTH 12 0
BBX 8 12 0 -2
BITMAP
FF
DB
18
30
7E
C6
C0
CC
7E
00
FF
C3
ENDCHAR
STARTCHAR 014c
ENCODING 4974
SWIDTH 720 0
DWIDTH 12 0
BBX 8 12 0 -2
BITMAP
FF
C3
7C
6C
0C
18
1E
32
3E
00
FF
C3
ENDCHAR
STARTCHAR 014d
ENCODING 4975
SWIDTH 720 0
DWIDTH 12 0
BBX 8 12 0 -2
BITMAP
FF
C3
7C
6C
0C
18
18
36
3E
00
FF
C3
ENDCHAR
STARTCHAR 014e
ENCODING 4976
SWIDTH 720 0
DWIDTH 12 0
BBX 8 12 0 -2
BITMAP
FF
C3
00
FF
DB
18
18
FF
C3
00
FF
C3
ENDCHAR
STARTCHAR 014f
ENCODING 4977
SWIDTH 720 0
DWIDTH 12 0
BBX 8 12 0 -2
BITMAP
FF
C3
00
66
66
7E
66
64
38
00
FF
C3
ENDCHAR
STARTCHAR 0150
ENCODING 4978
SWIDTH 720 0
DWIDTH 12 0
BBX 6 12 1 -2
BITMAP
FC
CC
00
30
30
30
30
30
30
00
FC
CC
ENDCHAR
STARTCHAR 0151
ENCODING 4979
SWIDTH 720 0
DWIDTH 12 0
BBX 8 12 0 -2
BITMAP
FF
C3
00
7E
5A
30
3C
66
66
00
FF
C3
ENDCHAR
STARTCHAR 0152
ENCODING 4980
SWIDTH 720 0
DWIDTH 12 0
BBX 8 12 0 -2
BITMAP
FF
C3
00
6E
DB
DB
DB
DB
73
00
FF
C3
ENDCHAR
STARTCHAR 0153
ENCODING 4981
SWIDTH 720 0
DWIDTH 12 0
BBX 8 12 0 -2
BITMAP
FF
C3
00
DB
DB
DF
DB
73
03
00
FF
C3
ENDCHAR
STARTCHAR 0154
ENCODING 4982
SWIDTH 720 0
DWIDTH 12 0
BBX 8 12 0 -2
BITMAP
FF
C3
00
66
66
66
3C
0C
0C
0C
FF
C3
ENDCHAR
STARTCHAR 0155
ENCODING 4983
SWIDTH 720 0
DWIDTH 12 0
BBX 8 12 0 -2
BITMAP
FF
C3
00
FF
DB
1C
0C
7F
63
00
FF
C3
ENDCHAR
STARTCHAR 0156
ENCODING 4984
SWIDTH 720 0
DWIDTH 12 0
BBX 8 12 0 -2
BITMAP
FF
C3
00
3F
65
C7
C0
C0
7E
06
FF
C3
ENDCHAR
STARTCHAR 0157
ENCODING 4985
SWIDTH 720 0
DWIDTH 12 0
BBX 8 12 0 -2
BITMAP
FE
C6
00
FE
EE
6C
6C
6C
6C
00
FE
C6
ENDCHAR
STARTCHAR 0158
ENCODING 4986
SWIDTH 720 0
DWIDTH 12 0
BBX 8 12 0 -2
BITMAP
FF
C3
78
6C
08
1C
06
0C
18
18
FF
C3
ENDCHAR
STARTCHAR 0159
ENCODING 4987
SWIDTH 720 0
DWIDTH 12 0
BBX 8 12 0 -2
BITMAP
FF
C3
3C
66
66
2C
30
30
30
30
FF
C3
ENDCHAR
STARTCHAR 015a
ENCODING 4988
SWIDTH 720 0
DWIDTH 12 0
BBX 8 12 0 -2
BITMAP
FF
C3
66
99
99
AA
CC
CC
CC
CC
FF
C3
ENDCHAR
STARTCHAR 013e
ENCODING 4989
SWIDTH 720 0
DWIDTH 12 0
BBX 0 0 0 0
BITMAP
ENDCHAR
STARTCHAR 013e
ENCODING 4990
SWIDTH 720 0
DWIDTH 12 0
BBX 0 0 0 0
BITMAP
ENDCHAR
STARTCHAR 013e
ENCODING 4991
SWIDTH 720 0
DWIDTH 12 0
BBX 0 0 0 0
BITMAP
ENDCHAR
STARTCHAR 015c
ENCODING 4992
SWIDTH 720 0
DWIDTH 12 0
BBX 4 10 2 -1
BITMAP
60
60
00
60
60
60
F0
F0
F0
60
ENDCHAR
STARTCHAR 015d
ENCODING 4993
SWIDTH 720 0
DWIDTH 12 0
BBX 2 2 3 0
BITMAP
C0
C0
ENDCHAR
STARTCHAR 015e
ENCODING 4994
SWIDTH 720 0
DWIDTH 12 0
BBX 8 7 0 1
BITMAP
1B
36
6C
D8
6C
36
1B
ENDCHAR
STARTCHAR 015f
ENCODING 4995
SWIDTH 720 0
DWIDTH 12 0
BBX 8 7 0 1
BITMAP
D8
6C
36
1B
36
6C
D8
ENDCHAR
STARTCHAR 0160
ENCODING 4996
SWIDTH 720 0
DWIDTH 12 0
BBX 7 10 1 -1
BITMAP
7C
C6
C6
0C
18
30
30
00
30
30
ENDCHAR
ENDFONT
